<svg xmlns="http://www.w3.org/2000/svg" viewBox="0 0 512 512">
	<defs>
		<style>
			#kitty #head {
				stroke: white;
				stroke-width: 20;
				stroke-linecap: round;
				stroke-linejoin: round;
				fill: lightgrey;
			}

			#kitty #mouth, 
			#kitty #whiskers {
				stroke-width: 20;
				stroke-linecap: round;
			}

			#kitty #eyes {
				fill: black
			}

			#kitty #nose {
				fill: hsl(0, 100%, 75%);
			}

			#kitty #mouth, 
			#kitty #whiskers {
				stroke: grey;
			}

			#computer path {
				stroke: none;
				stroke-width: 1.5;
				stroke-linejoin: round;
				fill: lightgrey;
			}

			#computer #prompt path {
				fill: #00ff00;
			}
		</style>
	</defs>

	<rect width="480" height="480" x="16" y="16" rx="128" ry="128" fill="hsl(25, 100%, 66%)" stroke="hsl(25, 100%, 60%)" stroke-width="16" />

	<g id="kitty" transform="translate(256, 256) scale(0.9) translate(0 -20) translate(0, 20) translate(-256, -256)">
		<g id="computer" transform="translate(115, 30) scale(15)">
			<rect x="2" y="2" width="20" height="12" fill="black" />
			<path d="M2 0c-1.104 0-2 .896-2 2v15c0 1.104.896 2 2 2h20c1.104 0 2-.896 2-2v-15c0-1.104-.896-2-2-2h-20zm20 14h-20v-12h20v12zm-6.599 7c0 1.6 1.744 2.625 2.599 3h-12c.938-.333 2.599-1.317 2.599-3h6.802z" stroke="black" fill="white" />

			<g id="prompt" transform="translate(4, 3) scale(0.0125)">
				<path d="M9.4 86.6C-3.1 74.1-3.1 53.9 9.4 41.4s32.8-12.5 45.3 0l192 192c12.5 12.5 12.5 32.8 0 45.3l-192 192c-12.5 12.5-32.8 12.5-45.3 0s-12.5-32.8 0-45.3L178.7 256 9.4 86.6zM256 416H544c17.7 0 32 14.3 32 32s-14.3 32-32 32H256c-17.7 0-32-14.3-32-32s14.3-32 32-32z"/>
			</g>
		</g>

		<g transform="translate(-20, 50)">
			<g id="kitty" transform="translate(256, 256) scale(1) translate(-256, -256)">
				<path id="head" d="M 204.6, 186.1 l -42.4 -69.5 c -1.6 -4 -5.4 -6.8 -9.7 -7.2 -4.3 -.4 -8.5, 1.6 -10.8, 5.3 -112.2, 238.9 -53.9, 304.5, 114.4, 303.7, 252.7, 1, 166.6 -206.3, 114.4 -310.7 -5.1-7.9 -16.9-6.9 -20.6, 1.8 l -42.4, 76.5 h -102.9 Z" />

				<g id="eyes">
					<ellipse cx="205" cy="270" rx="20" ry="30" />
					<ellipse cx="305" cy="270" rx="20" ry="30" />
				</g>

				<g id="mouth" style="display:none">
					<line x1="255" y1="315" x2="255" y2="365" />
					<line x1="215" y1="370" x2="255" y2="365" />
					<line x1="255" y1="365" x2="295" y2="370" />
				</g>

				<g id="nose">
					<ellipse cx="255" cy="320" rx="30" ry="20" />
				</g>

				<g id="whiskers">
					<line x1="30" y1="330" x2="150" y2="330" />
					<line x1="45" y1="390" x2="150" y2="360" />
					<line x1="475" y1="330" x2="350" y2="330" />
					<line x1="460" y1="390" x2="350" y2="360" />
				</g>
			</g>
		</g>
	</g>
</svg>